<svg xmlns="http://www.w3.org/2000/svg" width="640" height="480" font-family="sans-serif" font-size="12">
<rect width="100%" height="100%" fill="white"/>
<text x="320" y="25" text-anchor="middle" font-size="16">salary vs experience</text>
<line x1="60" y1="60" x2="60" y2="420" stroke="#eee"/>
<line x1="60" y1="420" x2="580" y2="420" stroke="#eee"/>
<text x="60" y="438" text-anchor="middle">2</text>
<text x="54" y="424" text-anchor="end">48000</text>
<line x1="164" y1="60" x2="164" y2="420" stroke="#eee"/>
<line x1="60" y1="348" x2="580" y2="348" stroke="#eee"/>
<text x="164" y="438" text-anchor="middle">5.6</text>
<text x="54" y="352" text-anchor="end">63400</text>
<line x1="268" y1="60" x2="268" y2="420" stroke="#eee"/>
<line x1="60" y1="276" x2="580" y2="276" stroke="#eee"/>
<text x="268" y="438" text-anchor="middle">9.2</text>
<text x="54" y="280" text-anchor="end">78800</text>
<line x1="372" y1="60" x2="372" y2="420" stroke="#eee"/>
<line x1="60" y1="204" x2="580" y2="204" stroke="#eee"/>
<text x="372" y="438" text-anchor="middle">12.8</text>
<text x="54" y="208" text-anchor="end">94200</text>
<line x1="476" y1="60" x2="476" y2="420" stroke="#eee"/>
<line x1="60" y1="132" x2="580" y2="132" stroke="#eee"/>
<text x="476" y="438" text-anchor="middle">16.4</text>
<text x="54" y="136" text-anchor="end">109600</text>
<line x1="580" y1="60" x2="580" y2="420" stroke="#eee"/>
<line x1="60" y1="60" x2="580" y2="60" stroke="#eee"/>
<text x="580" y="438" text-anchor="middle">20</text>
<text x="54" y="64" text-anchor="end">125000</text>
<line x1="60" y1="420" x2="580" y2="420" stroke="black"/>
<line x1="60" y1="60" x2="60" y2="420" stroke="black"/>
<text x="320" y="465" text-anchor="middle">experience</text>
<text x="15" y="240" text-anchor="middle" transform="rotate(-90 15 240)">salary</text>
<circle cx="117.778" cy="307.79" r="5" fill="#4C78A8" fill-opacity="0.8"><title>(4, 72000.5)</title></circle>
<circle cx="291.111" cy="265.714" r="5" fill="#4C78A8" fill-opacity="0.8"><title>(10, 81000)</title></circle>
<circle cx="522.222" cy="106.753" r="5" fill="#4C78A8" fill-opacity="0.8"><title>(18, 115000)</title></circle>
<circle cx="60" cy="420" r="5" fill="#4C78A8" fill-opacity="0.8"><title>(2, 48000)</title></circle>
<circle cx="204.444" cy="232.987" r="5" fill="#4C78A8" fill-opacity="0.8"><title>(7, 88000)</title></circle>
<circle cx="377.778" cy="275.065" r="5" fill="#4C78A8" fill-opacity="0.8"><title>(13, 79000)</title></circle>
<circle cx="88.8889" cy="401.299" r="5" fill="#4C78A8" fill-opacity="0.8"><title>(3, 52000)</title></circle>
<circle cx="580" cy="60" r="5" fill="#4C78A8" fill-opacity="0.8"><title>(20, 125000)</title></circle>
<circle cx="233.333" cy="335.844" r="5" fill="#4C78A8" fill-opacity="0.8"><title>(8, 66000)</title></circle>
<circle cx="175.556" cy="359.217" r="5" fill="#4C78A8" fill-opacity="0.8"><title>(6, 61000.8)</title></circle>
</svg>
